<svg width="14" height="14" viewBox="0 0 14 14" fill="none" xmlns="http://www.w3.org/2000/svg">
<g clip-path="url(#clip0_953_18941)">
<path d="M7.35042 13.3843C7.12065 13.4729 6.86612 13.4729 6.63635 13.3843C4.8435 12.6959 3.30162 11.48 2.21439 9.89695C1.12715 8.31391 0.545714 6.4383 0.546877 4.51786V1.54255C0.546877 1.27952 0.651366 1.02725 0.837359 0.841264C1.02336 0.655271 1.27562 0.550781 1.53865 0.550781H12.4481C12.7111 0.550781 12.9634 0.655271 13.1494 0.841264C13.3354 1.02725 13.4399 1.27952 13.4399 1.54255V4.51786C13.441 6.4383 12.8596 8.31391 11.7724 9.89695C10.6851 11.48 9.14328 12.6959 7.35042 13.3843Z" stroke="#009632" stroke-linecap="round" stroke-linejoin="round"/>
<path d="M10 4L6 8.5L4 7" stroke="#009632" stroke-linecap="round" stroke-linejoin="round"/>
</g>
<defs>
<clipPath id="clip0_953_18941">
<rect width="14" height="14" fill="white"/>
</clipPath>
</defs>
</svg>
